<?xml version="1.0" encoding="UTF-8"?>
<svg xmlns="http://www.w3.org/2000/svg" xmlns:xlink="http://www.w3.org/1999/xlink" width="500pt" height="500pt" viewBox="0 0 500 500" version="1.1">
<g id="surface2572019">
<path style="fill-rule:nonzero;fill:rgb(0%,0%,0%);fill-opacity:1;stroke-width:40;stroke-linecap:butt;stroke-linejoin:round;stroke:rgb(100%,100%,100%);stroke-opacity:1;stroke-miterlimit:10;" d="M 114.83625 4.94375 L 205.23625 43.7875 C 205.819945 43.999375 206.347555 44.3525 206.79 44.77625 C 206.79 44.830257 206.79 44.863493 206.79 44.9175 C 207.373695 45.553125 207.760055 46.33 207.92 47.1775 C 207.92 47.231507 207.92 47.264743 207.92 47.31875 C 207.92 47.405993 207.92 47.514007 207.92 47.60125 C 207.92 47.655257 207.92 47.688493 207.92 47.7425 C 207.938695 48.025 207.938695 48.3075 207.92 48.59 L 202.12875 137.5775 C 202.058125 138.919375 201.387187 140.174007 200.2925 140.9675 L 166.675 165.40375 C 167.204688 168.016875 167.66375 170.665312 167.66375 173.455 C 167.66375 200.273805 142.839062 221.48 113 221.48 C 83.160938 221.48 58.195 200.273805 58.195 173.455 C 58.195 170.594687 58.637445 167.927555 59.18375 165.2625 L 25.7075 140.9675 C 24.612813 140.174007 23.941875 138.919375 23.87125 137.5775 L 18.22125 49.57875 C 17.957445 48.801875 17.903437 47.970993 18.08 47.1775 C 18.08 47.090257 18.08 46.982243 18.08 46.895 C 18.468437 45.077445 19.91625 43.681562 21.7525 43.36375 L 111.16375 4.94375 C 111.606195 4.731875 112.081875 4.590625 112.57625 4.52 C 113.353125 4.465993 114.13 4.607243 114.83625 4.94375 Z M 32.62875 48.44875 L 113 94.21375 L 193.37125 48.44875 L 113 13.98375 Z M 113.14125 24.295 C 113.724945 24.330312 114.306562 24.471563 114.83625 24.71875 L 163.5675 45.765 C 165.12125 46.452555 166.164007 47.954375 166.25125 49.665993 C 166.338493 51.360993 165.474375 52.96875 163.99125 53.81625 L 115.26 81.6425 C 113.866195 82.454688 112.133805 82.454688 110.74 81.6425 L 62.00875 53.81625 C 60.525625 52.96875 59.661507 51.360993 59.74875 49.665993 C 59.835993 47.954375 60.87875 46.452555 62.4325 45.765 L 111.16375 24.71875 C 111.481562 24.596195 111.815993 24.490257 112.1525 24.43625 C 112.329062 24.382243 112.522243 24.330312 112.7175 24.295 C 112.85875 24.295 113 24.295 113.14125 24.295 Z M 104.94875 37.29 L 105.79625 37.855 C 106.396563 38.208125 106.785 38.825055 106.872243 39.514687 C 106.944945 40.202243 106.714375 40.891875 106.22 41.38625 L 101.55875 45.765 L 115.96625 39.8325 C 116.919688 39.479375 117.979062 39.813805 118.579375 40.625993 C 119.160993 41.456875 119.144375 42.570257 118.50875 43.36375 L 114.4125 48.16625 L 121.05125 45.90625 C 121.934063 45.605055 122.906195 45.887555 123.506507 46.6125 C 124.104743 47.337445 124.194063 48.342812 123.735 49.155 L 119.215 57.77125 L 128.82 63.42125 L 151.7025 50.42625 L 113 33.9 Z M 74.2975 50.42625 L 113 72.46125 L 124.3 65.96375 L 114.9775 60.59625 C 113.953438 59.977243 113.583695 58.689375 114.13 57.63 L 117.09625 52.12125 L 108.05625 55.37 C 107.048805 55.864375 105.850257 55.546562 105.212555 54.628438 C 104.57693 53.710313 104.701562 52.457757 105.51375 51.6975 L 109.045 47.60125 L 91.95375 54.66375 C 90.910993 55.210055 89.623125 54.859007 88.9875 53.870257 C 88.351875 52.862813 88.599063 51.55625 89.5525 50.85 L 100.99375 39.97375 L 100.14625 39.40875 Z M 32.77 134.89375 L 108.48 189.98125 L 108.48 101.9825 L 27.54375 55.935 Z M 117.52 101.9825 L 117.52 189.98125 L 193.23 134.89375 L 198.45625 55.935 Z M 44.49375 75.9925 L 94.77875 107.20875 C 96.085313 108.037555 96.8975 109.46875 96.8975 111.0225 L 98.0275 162.72 C 98.046195 164.433695 97.092757 166.004063 95.555625 166.780937 C 94.037188 167.557812 92.200937 167.416562 90.82375 166.3925 L 42.94 132.21 C 41.845312 131.416507 41.174375 130.161875 41.10375 128.82 L 37.5725 80.23 C 37.395938 77.82875 39.144945 75.728695 41.5275 75.4275 C 42.551563 75.267555 43.592243 75.462812 44.49375 75.9925 Z M 180.94125 75.4275 C 182.247812 75.373493 183.502445 75.905257 184.385257 76.84 C 185.284687 77.793437 185.725055 79.081305 185.6025 80.37125 L 181.93 128.96125 C 181.824062 130.338437 181.101195 131.574375 179.9525 132.35125 L 133.19875 165.12125 C 131.804945 166.164007 129.931305 166.286563 128.39625 165.474375 C 126.861195 164.662187 125.924375 163.037813 125.995 161.3075 L 126.98375 110.175 C 126.98375 108.62125 127.795938 107.190055 129.1025 106.36125 L 178.8225 76.13375 C 179.333493 75.780625 179.917187 75.550055 180.5175 75.4275 C 180.65875 75.4275 180.8 75.4275 180.94125 75.4275 Z M 50.0025 126.13625 L 88.84625 153.82125 L 87.8575 113.70625 L 47.31875 88.4225 Z M 135.8825 112.85875 L 135.17625 152.55 L 173.03125 126.2775 L 175.85625 88.56375 Z M 67.235 173.455 C 67.235 194.6425 87.398438 212.44 113 212.44 C 138.601562 212.44 158.62375 194.6425 158.62375 173.455 C 158.62375 172.74875 158.536507 172.0425 158.4825 171.33625 L 115.68375 202.5525 C 114.094687 203.736507 111.905313 203.736507 110.31625 202.5525 L 67.37625 171.33625 C 67.322243 172.0425 67.235 172.730055 67.235 173.455 Z M 67.235 173.455 " transform="matrix(1.880531,0,0,1.880531,37.5,37.5)"/>
<path style=" stroke:none;fill-rule:nonzero;fill:rgb(0%,0%,0%);fill-opacity:1;" d="M 249.203125 46 C 248.273438 46.132812 247.378906 46.398438 246.546875 46.796875 L 78.40625 119.046875 C 74.953125 119.644531 72.230469 122.269531 71.5 125.6875 C 71.5 125.851562 71.5 126.054688 71.5 126.21875 C 71.167969 127.710938 71.269531 129.273438 71.765625 130.734375 L 82.390625 296.21875 C 82.523438 298.742188 83.785156 301.101562 85.84375 302.59375 L 148.796875 348.28125 C 147.769531 353.292969 146.9375 358.308594 146.9375 363.6875 C 146.9375 414.121094 193.886719 454 250 454 C 306.113281 454 352.796875 414.121094 352.796875 363.6875 C 352.796875 358.441406 351.933594 353.460938 350.9375 348.546875 L 414.15625 302.59375 C 416.214844 301.101562 417.476562 298.742188 417.609375 296.21875 L 428.5 128.875 C 428.535156 128.34375 428.535156 127.8125 428.5 127.28125 C 428.5 127.179688 428.5 127.117188 428.5 127.015625 C 428.5 126.851562 428.5 126.648438 428.5 126.484375 C 428.5 126.382812 428.5 126.320312 428.5 126.21875 C 428.199219 124.625 427.472656 123.164062 426.375 121.96875 C 426.375 121.867188 426.375 121.804688 426.375 121.703125 C 425.542969 120.90625 424.550781 120.242188 423.453125 119.84375 L 253.453125 46.796875 C 252.125 46.164062 250.664062 45.898438 249.203125 46 Z M 250 63.796875 L 401.140625 128.609375 L 250 214.671875 L 98.859375 128.609375 Z M 249.46875 83.1875 C 249.101562 83.253906 248.738281 83.351562 248.40625 83.453125 C 247.773438 83.554688 247.144531 83.753906 246.546875 83.984375 L 154.90625 123.5625 C 151.984375 124.855469 150.023438 127.679688 149.859375 130.898438 C 149.695312 134.085938 151.320312 137.109375 154.109375 138.703125 L 245.75 191.03125 C 248.371094 192.558594 251.628906 192.558594 254.25 191.03125 L 345.890625 138.703125 C 348.679688 137.109375 350.304688 134.085938 350.140625 130.898438 C 349.976562 127.679688 348.015625 124.855469 345.09375 123.5625 L 253.453125 83.984375 C 252.457031 83.519531 251.363281 83.253906 250.265625 83.1875 C 250 83.1875 249.734375 83.1875 249.46875 83.1875 Z M 250 101.25 L 322.78125 132.328125 L 279.75 156.765625 L 261.6875 146.140625 L 270.1875 129.9375 C 271.050781 128.410156 270.882812 126.519531 269.757812 125.15625 C 268.628906 123.792969 266.800781 123.261719 265.140625 123.828125 L 252.65625 128.078125 L 260.359375 119.046875 C 261.554688 117.554688 261.585938 115.460938 260.492188 113.898438 C 259.363281 112.371094 257.371094 111.742188 255.578125 112.40625 L 228.484375 123.5625 L 237.25 115.328125 C 238.179688 114.398438 238.613281 113.101562 238.476562 111.808594 C 238.3125 110.515625 237.582031 109.351562 236.453125 108.6875 L 234.859375 107.625 Z M 225.828125 111.609375 L 227.421875 112.671875 L 205.90625 133.125 C 204.113281 134.453125 203.648438 136.910156 204.84375 138.804688 C 206.039062 140.664062 208.460938 141.328125 210.421875 140.296875 L 242.5625 127.015625 L 235.921875 134.71875 C 234.394531 136.148438 234.164062 138.503906 235.355469 140.230469 C 236.554688 141.957031 238.808594 142.554688 240.703125 141.625 L 257.703125 135.515625 L 252.125 145.875 C 251.097656 147.867188 251.792969 150.289062 253.71875 151.453125 L 271.25 161.546875 L 250 173.765625 L 177.21875 132.328125 Z M 89.296875 142.6875 L 241.5 229.28125 L 241.5 394.765625 L 99.125 291.171875 Z M 410.703125 142.6875 L 400.875 291.171875 L 258.5 394.765625 L 258.5 229.28125 Z M 115.59375 179.34375 C 111.113281 179.910156 107.824219 183.859375 108.15625 188.375 L 114.796875 279.75 C 114.929688 282.273438 116.191406 284.632812 118.25 286.125 L 208.296875 350.40625 C 210.886719 352.332031 214.339844 352.597656 217.195312 351.136719 C 220.085938 349.675781 221.878906 346.722656 221.84375 343.5 L 219.71875 246.28125 C 219.71875 243.359375 218.191406 240.667969 215.734375 239.109375 L 121.171875 180.40625 C 119.476562 179.410156 117.519531 179.042969 115.59375 179.34375 Z M 376.96875 179.34375 C 375.839844 179.574219 374.742188 180.007812 373.78125 180.671875 L 280.28125 237.515625 C 277.824219 239.074219 276.296875 241.765625 276.296875 244.6875 L 274.4375 340.84375 C 274.304688 344.097656 276.066406 347.152344 278.953125 348.679688 C 281.839844 350.207031 285.363281 349.976562 287.984375 348.015625 L 375.90625 286.390625 C 378.066406 284.929688 379.425781 282.605469 379.625 280.015625 L 386.53125 188.640625 C 386.761719 186.214844 385.933594 183.792969 384.242188 182 C 382.582031 180.242188 380.222656 179.242188 377.765625 179.34375 C 377.5 179.34375 377.234375 179.34375 376.96875 179.34375 Z M 126.484375 203.78125 L 202.71875 251.328125 L 204.578125 326.765625 L 131.53125 274.703125 Z M 368.203125 204.046875 L 362.890625 274.96875 L 291.703125 324.375 L 293.03125 249.734375 Z M 164.203125 359.703125 L 244.953125 418.40625 C 247.941406 420.632812 252.058594 420.632812 255.046875 418.40625 L 335.53125 359.703125 C 335.632812 361.03125 335.796875 362.359375 335.796875 363.6875 C 335.796875 403.53125 298.144531 437 250 437 C 201.855469 437 163.9375 403.53125 163.9375 363.6875 C 163.9375 362.324219 164.101562 361.03125 164.203125 359.703125 Z M 164.203125 359.703125 "/>
</g>
</svg>
